<?xml version="1.0" encoding="UTF-8"?><svg xmlns="http://www.w3.org/2000/svg" xmlns:xlink="http://www.w3.org/1999/xlink" height="576.1" preserveAspectRatio="xMidYMid meet" version="1.0" viewBox="133.5 10.1 576.3 576.1" width="576.3" zoomAndPan="magnify"><g id="change1_1"><path d="M709.8,498.7c0,48.3-39.2,87.5-87.5,87.5H221c-48.3,0-87.5-39.2-87.5-87.5V97.6c0-48.3,39.2-87.5,87.5-87.5 h401.1c48.3,0,87.5,39.2,87.5,87.5v401.1H709.8z" fill="#3FC6EE"/></g><g id="change2_1"><path d="M627.5,192.6c-13.6,6-28.1,10.1-43.3,11.9c15.6-9.3,27.6-24.2,33.2-41.8c-14.5,8.7-30.7,14.9-48,18.3 c-13.8-14.6-33.5-23.8-55.1-23.8c-41.7,0-75.5,33.8-75.5,75.5c0,6,0.7,11.7,1.9,17.1c-62.7-3.1-118.3-33.2-155.6-78.9 c-6.4,11.2-10.2,24.2-10.2,38c0,26.2,13.3,49.3,33.6,62.9c-12.4-0.4-24-3.8-34.2-9.4v1c0,36.6,26.1,67.1,60.6,74.1 c-6.3,1.7-13,2.6-19.9,2.6c-4.9,0-9.6-0.5-14.2-1.4c9.6,30,37.5,51.8,70.5,52.4c-25.8,20.2-58.3,32.3-93.7,32.3 c-6.1,0-12.1-0.4-18-1.1c33.5,21.4,73.1,33.9,115.7,33.9c138.8,0,214.8-115,214.8-214.8c0-3.2-0.1-6.5-0.2-9.8 C604.5,221.1,617.3,207.9,627.5,192.6z" fill="#FFF"/></g></svg>